<svg id="visual" viewBox="0 0 1280 720" width="1280" height="720" xmlns="http://www.w3.org/2000/svg" xmlns:xlink="http://www.w3.org/1999/xlink" version="1.1"><rect x="0" y="0" width="1280" height="720" fill="#282c34"></rect><path d="M861 720L858.3 705C855.7 690 850.3 660 842.8 630C835.3 600 825.7 570 831.5 540C837.3 510 858.7 480 863.7 450C868.7 420 857.3 390 849 360C840.7 330 835.3 300 841.5 270C847.7 240 865.3 210 874.2 180C883 150 883 120 869.5 90C856 60 829 30 815.5 15L802 0L1280 0L1280 15C1280 30 1280 60 1280 90C1280 120 1280 150 1280 180C1280 210 1280 240 1280 270C1280 300 1280 330 1280 360C1280 390 1280 420 1280 450C1280 480 1280 510 1280 540C1280 570 1280 600 1280 630C1280 660 1280 690 1280 705L1280 720Z" fill="#8ec8f4"></path><path d="M953 720L946.7 705C940.3 690 927.7 660 928.8 630C930 600 945 570 942 540C939 510 918 480 904.8 450C891.7 420 886.3 390 890.7 360C895 330 909 300 908.2 270C907.3 240 891.7 210 887.3 180C883 150 890 120 899.5 90C909 60 921 30 927 15L933 0L1280 0L1280 15C1280 30 1280 60 1280 90C1280 120 1280 150 1280 180C1280 210 1280 240 1280 270C1280 300 1280 330 1280 360C1280 390 1280 420 1280 450C1280 480 1280 510 1280 540C1280 570 1280 600 1280 630C1280 660 1280 690 1280 705L1280 720Z" fill="#7cc0f2"></path><path d="M949 720L946 705C943 690 937 660 934.3 630C931.7 600 932.3 570 944.3 540C956.3 510 979.7 480 983.8 450C988 420 973 390 970.8 360C968.7 330 979.3 300 986.5 270C993.7 240 997.3 210 988.5 180C979.7 150 958.3 120 960 90C961.7 60 986.3 30 998.7 15L1011 0L1280 0L1280 15C1280 30 1280 60 1280 90C1280 120 1280 150 1280 180C1280 210 1280 240 1280 270C1280 300 1280 330 1280 360C1280 390 1280 420 1280 450C1280 480 1280 510 1280 540C1280 570 1280 600 1280 630C1280 660 1280 690 1280 705L1280 720Z" fill="#68b7f1"></path><path d="M1017 720L1020.3 705C1023.7 690 1030.3 660 1031 630C1031.7 600 1026.3 570 1025 540C1023.7 510 1026.3 480 1025.7 450C1025 420 1021 390 1026.8 360C1032.7 330 1048.3 300 1054.3 270C1060.3 240 1056.7 210 1048.5 180C1040.3 150 1027.7 120 1027.2 90C1026.7 60 1038.3 30 1044.2 15L1050 0L1280 0L1280 15C1280 30 1280 60 1280 90C1280 120 1280 150 1280 180C1280 210 1280 240 1280 270C1280 300 1280 330 1280 360C1280 390 1280 420 1280 450C1280 480 1280 510 1280 540C1280 570 1280 600 1280 630C1280 660 1280 690 1280 705L1280 720Z" fill="#51afef"></path><path d="M1103 720L1097.5 705C1092 690 1081 660 1082 630C1083 600 1096 570 1096.8 540C1097.7 510 1086.3 480 1085.2 450C1084 420 1093 390 1100.8 360C1108.7 330 1115.3 300 1116.2 270C1117 240 1112 210 1112 180C1112 150 1117 120 1114.3 90C1111.7 60 1101.3 30 1096.2 15L1091 0L1280 0L1280 15C1280 30 1280 60 1280 90C1280 120 1280 150 1280 180C1280 210 1280 240 1280 270C1280 300 1280 330 1280 360C1280 390 1280 420 1280 450C1280 480 1280 510 1280 540C1280 570 1280 600 1280 630C1280 660 1280 690 1280 705L1280 720Z" fill="#499fdb"></path><path d="M1135 720L1136.3 705C1137.7 690 1140.3 660 1144 630C1147.7 600 1152.3 570 1158.7 540C1165 510 1173 480 1166.5 450C1160 420 1139 390 1137 360C1135 330 1152 300 1162.2 270C1172.3 240 1175.7 210 1168.3 180C1161 150 1143 120 1138 90C1133 60 1141 30 1145 15L1149 0L1280 0L1280 15C1280 30 1280 60 1280 90C1280 120 1280 150 1280 180C1280 210 1280 240 1280 270C1280 300 1280 330 1280 360C1280 390 1280 420 1280 450C1280 480 1280 510 1280 540C1280 570 1280 600 1280 630C1280 660 1280 690 1280 705L1280 720Z" fill="#4190c7"></path><path d="M1206 720L1204.3 705C1202.7 690 1199.3 660 1196.2 630C1193 600 1190 570 1198.7 540C1207.3 510 1227.7 480 1227.5 450C1227.3 420 1206.7 390 1202.3 360C1198 330 1210 300 1212.3 270C1214.7 240 1207.3 210 1208 180C1208.7 150 1217.3 120 1225.3 90C1233.3 60 1240.7 30 1244.3 15L1248 0L1280 0L1280 15C1280 30 1280 60 1280 90C1280 120 1280 150 1280 180C1280 210 1280 240 1280 270C1280 300 1280 330 1280 360C1280 390 1280 420 1280 450C1280 480 1280 510 1280 540C1280 570 1280 600 1280 630C1280 660 1280 690 1280 705L1280 720Z" fill="#3981b4"></path></svg>